PathFileType  4	(X/Y/Z) C:\Users\antoi\Documents\MyRepositories\mobilecap\ResultsAnalysis
DataRate	CameraRate	NumFrames	NumMarkers	Units	OrigDataRate	OrigDataStartFrame	OrigNumFrames
100.0	100.0	5	51	mm	100.0	61	121
Frame#	Time	r_knee			r_shank_antsup			r_ankle			r_calc			r_5meta			r_toe			L_knee			L_shank_antsup			L_ankle			L_calc			L_5meta			L_toe			r_sh2			r_sh3			r_sh4			L_sh2			L_sh3			r_thigh1			r_thigh2			r_thigh3			r_thigh4			r_thigh5			L_thigh1			L_thigh2			L_thigh3			L_thigh4			r.ASIS			r.PSIS			L.ASIS			L.PSIS			C7			R_Shoulder			L_Shoulder			R_Sternum			L_Sternum			R_humerus			R_elbow_med			R_elbow_lat			R_forearm			R_wrist_radius			R_wrist_ulna			L_humerus			L_elbow_med			L_elbow_lat			L_forearm			L_wrist_radius			L_wrist_ulna			R_HJC			L_HJC			R_HJC_reg			L_HJC_reg			
		X1	Y1	Z1	X2	Y2	Z2	X3	Y3	Z3	X4	Y4	Z4	X5	Y5	Z5	X6	Y6	Z6	X7	Y7	Z7	X8	Y8	Z8	X9	Y9	Z9	X10	Y10	Z10	X11	Y11	Z11	X12	Y12	Z12	X13	Y13	Z13	X14	Y14	Z14	X15	Y15	Z15	X16	Y16	Z16	X17	Y17	Z17	X18	Y18	Z18	X19	Y19	Z19	X20	Y20	Z20	X21	Y21	Z21	X22	Y22	Z22	X23	Y23	Z23	X24	Y24	Z24	X25	Y25	Z25	X26	Y26	Z26	X27	Y27	Z27	X28	Y28	Z28	X29	Y29	Z29	X30	Y30	Z30	X31	Y31	Z31	X32	Y32	Z32	X33	Y33	Z33	X34	Y34	Z34	X35	Y35	Z35	X36	Y36	Z36	X37	Y37	Z37	X38	Y38	Z38	X39	Y39	Z39	X40	Y40	Z40	X41	Y41	Z41	X42	Y42	Z42	X43	Y43	Z43	X44	Y44	Z44	X45	Y45	Z45	X46	Y46	Z46	X47	Y47	Z47	X48	Y48	Z48	X49	Y49	Z49	X50	Y50	Z50	X51	Y51	Z51	

61	0.60000000	584.84835	420.09610	-37.25992	536.09718	364.31153	-14.94970	284.89645	196.62507	-76.25786	229.83780	241.64938	-117.76323	281.87787	77.54157	-64.78625	326.98599	57.94420	-117.70257	794.52712	457.49310	-308.15396	832.89585	396.95545	-303.32344	823.57961	87.83854	-282.80607	754.29252	57.31978	-240.19300	919.91843	42.72994	-301.67960	965.84845	72.35826	-246.07963	445.63179	296.30520	-21.45143	492.91853	420.89344	-39.05971	396.90915	357.51522	-49.96818	749.65065	391.36554	-338.57214	770.12819	270.98658	-336.62130	704.93849	723.54799	-41.66652	703.34721	609.86760	-30.20998	646.42141	592.86771	2.55633	602.19634	728.98990	9.12629	592.15987	612.84813	-1.28448	758.86622	747.61194	-334.41617	806.57253	616.48149	-321.67420	653.91518	707.28336	-363.57305	709.44687	575.72591	-346.12118	705.82870	874.79867	-43.72191	527.23436	891.04422	-129.53083	721.56368	893.75372	-301.93403	529.15635	888.57150	-237.43219	582.59307	1366.38598	-174.79912	647.71299	1307.42919	-25.21626	626.91237	1311.33717	-343.53876	696.84680	1279.75359	-163.59206	694.65078	1280.55572	-208.52782	691.79107	1075.39787	54.89312	653.48372	962.13795	19.21969	683.32909	989.41735	80.79562	768.62924	898.54462	76.33197	827.70935	795.09156	67.10321	796.61178	777.07430	93.25237	637.10060	1181.39303	-403.41952	549.98509	981.60088	-358.55427	541.99139	997.99994	-418.56870	540.41956	903.18497	-467.12546	507.01617	781.26314	-479.29071	470.98338	788.75407	-472.16182	646.41495	799.08516	-82.05014	661.48421	814.56382	-281.14943	648.86900	803.65492	-79.23138	651.91647	799.72753	-250.32992	
62	0.61000000	612.54964	418.50107	-36.09716	563.14533	364.65670	-13.61463	306.81331	205.37756	-75.12979	257.18635	255.29625	-117.66479	294.32827	86.04233	-64.29271	339.05047	62.36114	-115.98831	806.25413	458.66231	-309.89524	842.99539	396.76583	-304.66086	824.20894	87.94531	-283.11785	754.47466	57.55732	-240.32397	920.11631	42.10239	-301.97926	966.53282	70.69597	-246.08010	470.57852	299.41252	-20.42674	522.09573	422.23361	-38.88936	424.09036	361.85355	-49.85160	760.19156	393.27615	-341.23918	777.29173	272.48510	-338.57896	722.68606	724.90775	-43.03924	725.21210	611.12317	-30.37894	668.67894	592.62397	2.61576	619.91501	727.38424	7.64299	613.78380	610.90293	-1.56931	773.38406	749.90215	-335.93100	820.01671	618.33723	-323.73947	668.29919	710.45537	-365.83185	722.68942	578.34953	-348.92097	720.48978	875.59710	-45.51074	541.84264	891.04145	-129.93383	735.90440	896.66866	-303.37736	543.64742	890.18880	-237.88290	596.87401	1367.94505	-175.79696	661.49735	1308.97961	-25.89889	642.33220	1312.72533	-344.36065	711.07412	1281.26294	-164.14566	708.76638	1281.88533	-209.02382	703.47568	1075.95145	53.27786	664.90810	963.40573	16.12252	693.93282	989.89323	78.40251	777.42978	897.31298	75.12826	834.37039	792.56391	66.62889	802.48665	775.21056	92.21094	654.18928	1182.44531	-403.85337	568.20660	982.12302	-358.98284	560.72189	998.08304	-419.26940	561.08119	902.89927	-467.28152	529.88962	780.37129	-479.14598	493.72570	787.21740	-472.64184	661.77852	799.70957	-83.94967	676.09240	817.06353	-282.95296	664.46679	803.45020	-82.04458	667.32452	802.10088	-253.05430	
63	0.62000000	640.65099	417.60023	-35.18961	591.05918	365.41418	-12.69266	330.18094	214.01761	-74.26323	284.85198	267.18793	-117.90403	310.49460	95.06066	-63.21179	354.69958	67.87214	-113.82202	816.43901	459.50750	-311.55390	851.61658	396.42813	-306.14660	824.62451	88.06518	-283.37101	754.54494	57.71473	-240.43699	920.17524	41.80831	-302.26079	966.91628	69.61755	-246.11780	496.68301	302.66587	-19.62517	551.83890	423.81567	-38.75508	452.15591	366.13788	-49.56459	768.95254	394.85187	-343.21634	782.91844	273.75038	-339.92153	739.97894	726.78066	-44.10438	746.60889	613.05868	-30.48159	690.56573	592.93630	2.64277	637.15453	726.14517	6.17992	635.04728	609.46716	-2.01863	787.44283	751.73605	-337.49870	832.42486	619.56833	-325.76105	681.95598	713.56391	-367.77320	734.65549	580.73567	-351.30181	734.64996	876.69528	-47.22438	556.05425	891.23595	-130.33453	749.89983	899.63372	-304.75663	557.79598	891.90552	-238.21948	611.04354	1369.72053	-176.62427	675.12006	1310.71775	-26.41551	657.72406	1314.35446	-344.95431	725.18102	1282.93570	-164.45901	722.88265	1283.42066	-209.29045	715.04543	1076.73071	51.74835	676.24757	964.90601	13.07225	704.38132	990.59246	76.03739	785.99845	896.32142	73.98502	840.66866	790.26949	66.22792	807.99088	773.62201	91.19824	671.30262	1183.78026	-404.03569	586.50225	982.87813	-359.36428	579.66152	998.40492	-419.91489	582.30677	902.83094	-467.33770	553.67847	779.63774	-478.91784	517.38422	785.73862	-473.17704	676.71877	800.59472	-85.69706	690.33681	819.63373	-284.60498	679.61480	803.52132	-84.77488	682.37225	804.59059	-255.67027	
64	0.63000000	668.95022	417.57378	-34.53630	619.55206	366.64850	-12.19046	354.84256	222.38313	-73.78568	312.24807	277.10429	-118.55917	330.69876	104.15163	-61.50462	374.30918	74.19378	-111.24568	825.08279	459.98452	-313.04664	858.79054	395.90247	-307.74268	824.94149	88.16744	-283.54681	754.57719	57.84980	-240.52416	920.18701	41.66487	-302.51473	967.14903	68.87857	-246.19324	523.67015	306.07207	-19.10508	581.82824	425.74178	-38.63359	480.79323	370.40267	-49.14850	775.89756	396.07551	-344.38054	787.05316	274.74096	-340.60308	756.83104	729.20269	-44.88394	767.44647	615.71767	-30.50724	711.95487	593.89938	2.61568	653.91805	725.40906	4.70058	655.86035	608.66979	-2.69431	800.98411	753.06338	-339.03917	843.81748	620.13099	-327.62967	694.86368	716.51983	-369.30746	745.36587	582.83157	-353.11631	748.37351	878.14025	-48.74374	569.92352	891.68838	-130.85367	763.64208	902.51705	-305.99305	571.66840	893.68603	-238.57793	625.11226	1371.66794	-177.29721	688.56189	1312.60918	-26.77232	673.05966	1316.18974	-345.32905	739.15597	1284.73528	-164.54437	736.97579	1285.12207	-209.34241	726.51764	1077.71125	50.32168	687.50185	966.61452	10.09905	714.67767	991.48946	73.71577	794.37061	895.57735	72.92376	846.65988	788.23470	65.90236	813.18881	772.32373	90.22632	688.37995	1185.37789	-403.97498	604.81851	983.84253	-359.72587	598.74510	998.95162	-420.50409	604.06536	902.98711	-467.28714	578.37314	779.09029	-478.59005	541.93119	784.34873	-473.71275	691.22200	801.78538	-87.22395	704.33193	822.17096	-286.04579	694.33625	803.92485	-87.24227	697.10177	807.10440	-258.01946	
65	0.64000000	697.25891	418.54924	-34.10891	648.34618	368.41304	-12.04431	380.64555	230.23185	-73.71261	339.13379	284.97415	-119.61207	354.84713	112.82135	-59.25432	397.89208	80.88516	-108.34497	832.34563	460.13082	-314.27927	864.67352	395.21212	-309.34523	825.20682	88.25053	-283.62972	754.60707	57.99202	-240.57620	920.19820	41.57490	-302.72881	967.31976	68.31169	-246.28512	551.27584	309.62238	-18.89241	611.77330	428.09291	-38.49200	509.70060	374.66497	-48.67790	781.20419	397.00930	-344.73899	789.90285	275.48964	-340.65333	773.31310	732.19418	-45.43384	787.72483	619.10861	-30.45768	732.81401	595.57431	2.52555	670.28791	725.27775	3.19579	676.24397	608.58571	-3.61673	813.98053	753.94047	-340.45333	854.31899	620.12611	-329.22243	707.09303	719.27999	-370.41623	755.00478	584.65566	-354.31190	761.76795	879.98169	-49.96137	583.51046	892.46491	-131.59692	777.21844	905.20638	-307.02997	585.33463	895.51321	-239.09930	639.08572	1373.75107	-177.83327	701.80341	1314.62279	-26.97663	688.30187	1318.19093	-345.50129	752.98168	1286.63069	-164.42478	750.99523	1286.94693	-209.19983	737.90314	1078.86369	49.01238	698.65884	968.50420	7.23762	724.82997	992.55829	71.45779	802.57717	895.07954	71.96881	852.39734	786.47526	65.65635	818.13827	771.31932	89.30614	705.37472	1187.20782	-403.68672	623.11000	984.98048	-360.09386	617.91886	999.69511	-421.04949	626.32296	903.36300	-467.12345	603.94714	778.75796	-478.13793	567.34283	783.06460	-474.17601	705.30015	803.33040	-88.47772	718.19053	824.59066	-287.23288	708.67710	804.70895	-89.28489	711.57434	809.56070	-259.97052	
